Coordinates
version=1
nRows=27
nColumns=26
inDegrees=yes

Units are S.I. units (second, meters, Newtons, ...)
If the header above contains a line with 'inDegrees', this indicates whether rotational values are in degrees (yes) or radians (no).

endheader
time	pelvis_tilt	pelvis_list	pelvis_rotation	pelvis_tx	pelvis_ty	pelvis_tz	hip_flexion_r	hip_adduction_r	hip_rotation_r	knee_angle_r	knee_angle_r_beta	hip_flexion_l	hip_adduction_l	hip_rotation_l	knee_angle_l	knee_angle_l_beta	lumbar_extension	lumbar_bending	lumbar_rotation	ankle_angle_r	subtalar_angle_r	mtp_angle_r	ankle_angle_l	subtalar_angle_l	mtp_angle_l
      4.79333333	      0.50992423	      0.17237815	     -3.88770836	      0.86334384	      0.91108160	     -0.39124926	     13.93140166	     -8.81962381	    -13.80349329	     53.85322524	      0.93991609	      6.89504936	     -0.70589207	    -15.78910627	     14.07898146	      0.24572458	    -11.63247209	     -2.04893629	      1.24814354	      9.67904543	    -17.98143395	      0.00000000	     14.47809382	     -0.00100431	      0.00000000
      4.80000000	      0.53865888	     -0.07749768	     -3.81392296	      0.86986789	      0.91187223	     -0.39161112	     14.45026355	     -8.44643967	    -14.07361987	     53.04011673	      0.92572467	      6.25084508	     -0.93665446	    -16.07579751	     13.82896168	      0.24136091	    -11.74023950	     -1.82934276	      0.96506847	     10.23030777	    -17.98891927	      0.00000000	     14.67364859	      0.59760845	      0.00000000
      4.80666667	      0.44490108	     -0.18535005	     -3.77749107	      0.87634546	      0.91240315	     -0.39203171	     15.13557601	     -8.21867919	    -14.24651464	     52.18288035	      0.91076308	      5.73871508	     -0.98826786	    -16.28796264	     13.54452022	      0.23639647	    -11.68698790	     -1.73842399	      0.67986051	     10.51264317	    -18.03014031	      0.00000000	     14.79465708	      0.75268400	      0.00000000
      4.81333333	      0.45000206	     -0.45591991	     -3.67671505	      0.88287156	      0.91303561	     -0.39239422	     15.59956944	     -7.79830331	    -14.51687327	     51.14195777	      0.89259555	      5.09734617	     -1.21031665	    -16.36752633	     13.23394403	      0.23097590	    -11.74764541	     -1.46291990	      0.36988649	     11.03047849	    -18.07093487	      0.00000000	     14.92476566	      1.19207748	      0.00000000
      4.82000000	      0.39250102	     -0.43256677	     -3.59158309	      0.88909212	      0.91334351	     -0.39278210	     16.24747024	     -7.74271745	    -14.73238485	     50.19485285	      0.87606545	      4.66294732	     -1.14079829	    -16.63674541	     13.12789946	      0.22912507	    -11.79486344	     -1.53616998	      0.20461106	     11.18341914	    -18.06788121	      0.00000000	     15.02957231	      1.25565397	      0.00000000
      4.82666667	      0.67260124	     -0.88022445	     -3.40675603	      0.89572128	      0.91426082	     -0.39305814	     16.23792645	     -7.12100654	    -15.13195430	     48.80028236	      0.85172560	      3.70469257	     -1.56584889	    -16.75841214	     12.80646951	      0.22351506	    -12.18064622	     -1.06716616	     -0.26318329	     11.69613968	    -18.07527458	      0.00000000	     15.36417983	      2.27352016	      0.00000000
      4.83333333	      0.56447813	     -0.83049110	     -3.36073875	      0.90205793	      0.91435027	     -0.39326889	     16.87555035	     -7.05730703	    -15.30325488	     47.66547970	      0.83191956	      3.28710165	     -1.46583383	    -16.96759402	     12.64613093	      0.22071662	    -12.11416716	     -1.18287059	     -0.45818809	     11.83500594	    -18.08148639	      0.00000000	     15.48641075	      2.32012729	      0.00000000
      4.84000000	      0.66168238	     -1.16500715	     -3.13973646	      0.90847751	      0.91482099	     -0.39365570	     17.07944690	     -6.55553650	    -15.65699495	     46.20305613	      0.80639545	      2.55063505	     -1.74189709	    -16.90177269	     12.27915556	      0.21431169	    -12.32381723	     -0.79146143	     -0.87893267	     12.12987861	    -18.14076322	      0.00000000	     15.66598223	      2.78193335	      0.00000000
      4.84666667	      0.56957941	     -1.07407392	     -3.10471177	      0.91478303	      0.91475568	     -0.39374532	     17.65400344	     -6.51443959	    -15.79540165	     44.93381177	      0.78424296	      2.12134883	     -1.60055417	    -17.11637631	     12.13489065	      0.21179380	    -12.27109319	     -0.95897350	     -1.10619093	     12.23102919	    -18.11814047	      0.00000000	     15.81222002	      2.83088204	      0.00000000
      4.85333333	      0.75189906	     -1.39203351	     -2.87006707	      0.92122139	      0.91516148	     -0.39409462	     17.69149584	     -6.02890470	    -16.13832583	     43.27494012	      0.75529019	      1.29305929	     -1.86207949	    -17.05591574	     11.76291586	      0.20530161	    -12.58117080	     -0.58133681	     -1.56415351	     12.32614943	    -18.17116695	      0.00000000	     16.02577122	      3.30260567	      0.00000000
      4.86000000	      0.74127989	     -1.43912498	     -2.76565479	      0.92753638	      0.91510473	     -0.39418879	     18.05308055	     -5.81313906	    -16.31157683	     41.75012001	      0.72867706	      0.72674957	     -1.85628590	    -17.15147299	     11.48885065	      0.20051827	    -12.64856805	     -0.55666470	     -1.88656061	     12.36459827	    -18.17749968	      0.00000000	     16.21472314	      3.52966798	      0.00000000
      4.86666667	      0.63624118	     -1.26808349	     -2.71063260	      0.93376988	      0.91473082	     -0.39423581	     18.58211915	     -5.86043872	    -16.45005295	     40.30537694	      0.70346153	      0.34246601	     -1.63853792	    -17.37581789	     11.37730767	      0.19857148	    -12.59093861	     -0.78801572	     -2.07318589	     12.42566643	    -18.12295810	      0.00000000	     16.35870696	      3.55617447	      0.00000000
      4.87333333	      0.68659338	     -1.49066133	     -2.52250469	      0.94012820	      0.91469818	     -0.39437294	     18.72568419	     -5.41909352	    -16.64256477	     38.48840126	      0.67174933	     -0.34115994	     -1.80821024	    -17.30595422	     10.98644202	      0.19174959	    -12.74177410	     -0.52754077	     -2.54819762	     12.33599465	    -18.14863155	      0.00000000	     16.55218353	      3.83444667	      0.00000000
      4.88000000	      0.59294253	     -1.27140759	     -2.47241134	      0.94633454	      0.91415584	     -0.39429881	     19.19855541	     -5.51396913	    -16.78780549	     36.93823204	      0.64469377	     -0.72180201	     -1.55078304	    -17.55722230	     10.90416613	      0.19031360	    -12.69680094	     -0.80944874	     -2.71477716	     12.35563317	    -18.06635743	      0.00000000	     16.70111555	      3.86665114	      0.00000000
      4.88666667	      0.75419204	     -1.51904583	     -2.25860125	      0.95270997	      0.91414025	     -0.39439780	     19.11712583	     -5.02443192	    -16.94640757	     34.88632377	      0.60888121	     -1.49908688	     -1.76925171	    -17.56987780	     10.57601285	      0.18458625	    -12.98488629	     -0.48547367	     -3.17094361	     12.00254444	    -18.10370344	      0.00000000	     16.90960045	      4.26073828	      0.00000000
      4.89333333	      0.62269001	     -1.24879518	     -2.21590984	      0.95890803	      0.91337295	     -0.39418337	     19.60420827	     -5.15797366	    -17.05993714	     33.27204679	      0.58070677	     -1.83316032	     -1.47079073	    -17.86628850	     10.48880205	      0.18306413	    -12.89964832	     -0.84400313	     -3.33513324	     12.01566068	    -17.97935211	      0.00000000	     17.07272595	      4.29052794	      0.00000000
      4.90000000	      0.75866547	     -1.43548352	     -2.06709718	      0.96518881	      0.91314164	     -0.39402651	     19.52064442	     -4.67175410	    -17.04544269	     31.11339356	      0.54303116	     -2.53757999	     -1.66354298	    -18.04121097	     10.26148019	      0.17909662	    -13.17505218	     -0.61384757	     -3.74501071	     11.49066712	    -18.00219604	      0.00000000	     17.33267394	      4.82640136	      0.00000000
      4.90666667	      0.57841515	     -1.14425597	     -2.01985484	      0.97139773	      0.91218447	     -0.39372148	     20.00251913	     -4.80068748	    -17.09348560	     29.39220984	      0.51299084	     -2.81900235	     -1.35205416	    -18.32071721	     10.16748307	      0.17745606	    -13.03538482	     -0.98134639	     -3.92698731	     11.49977012	    -17.81427135	      0.00000000	     17.49887820	      4.85898805	      0.00000000
      4.91333333	      0.43872126	     -1.14050088	     -1.93374444	      0.97760599	      0.91139917	     -0.39334408	     20.25208300	     -4.47899762	    -16.86647111	     27.28154614	      0.47615281	     -3.18772845	     -1.35576609	    -18.46526830	      9.99717860	      0.17448368	    -12.97489452	     -0.99712326	     -4.33705266	     11.20932531	    -17.63378687	      0.00000000	     17.69859698	      5.07001122	      0.00000000
      4.92000000	      0.38530165	     -1.14573721	     -1.84748011	      0.98390535	      0.91061839	     -0.39288786	     20.36570214	     -4.17594589	    -16.75817505	     25.13073891	      0.43861414	     -3.60910533	     -1.40135023	    -18.79986345	      9.93807194	      0.17345208	    -13.00562511	     -0.99546318	     -4.63618068	     10.76956058	    -17.50448712	      0.00000000	     17.93122213	      5.37911072	      0.00000000
      4.92666667	      0.24183985	     -0.81641263	     -1.80552389	      0.99013855	      0.90950811	     -0.39243307	     20.71757008	     -4.31860381	    -16.72132388	     23.28273971	      0.40636047	     -3.88022932	     -1.08066005	    -19.09597309	      9.97050730	      0.17401818	    -12.90318334	     -1.39250197	     -4.76486307	     10.67915663	    -17.25233300	      0.00000000	     18.11025307	      5.49120211	      0.00000000
      4.93333333	      0.07309860	     -0.59130572	     -1.75220105	      0.99643898	      0.90835328	     -0.39199228	     21.01653590	     -4.29415172	    -16.53662249	     21.31213969	      0.37196701	     -4.13940775	     -0.86976977	    -19.42221654	      9.96638094	      0.17394616	    -12.76984432	     -1.61484608	     -5.01609510	     10.50536799	    -16.92669681	      0.00000000	     18.30607453	      5.63550030	      0.00000000
      4.94000000	      0.01413775	     -0.67954569	     -1.68827080	      1.00287057	      0.90743133	     -0.39131570	     20.97672012	     -3.84027534	    -16.23584247	     18.95523087	      0.33083119	     -4.50041283	     -1.06862781	    -19.89286519	     10.07824420	      0.17589854	    -12.76374212	     -1.49284231	     -5.25167849	      9.92852232	    -16.69791259	      0.00000000	     18.59877143	      6.11228958	      0.00000000
      4.94666667	     -0.16601407	     -0.36523977	     -1.63687771	      1.00915311	      0.90615702	     -0.39068639	     21.23075889	     -3.88639972	    -15.89710723	     16.96183653	      0.29603989	     -4.69988499	     -0.79557112	    -20.17760661	     10.18357144	      0.17773685	    -12.63646422	     -1.85315933	     -5.47123531	      9.76553597	    -16.26436819	      0.00000000	     18.81489561	      6.31983103	      0.00000000
      4.95333333	     -0.30344468	     -0.31002989	     -1.60537827	      1.01562024	      0.90494840	     -0.38984371	     21.29215920	     -3.59730150	    -15.52305082	     14.76937274	      0.25777418	     -4.94665197	     -0.85320578	    -20.61969286	     10.35283517	      0.18069106	    -12.53650564	     -1.93854807	     -5.68767594	      9.38800866	    -15.79528816	      0.00000000	     19.09597422	      6.70754699	      0.00000000
      4.96000000	     -0.32016433	     -0.24303732	     -1.55853155	      1.02221498	      0.90381688	     -0.38913146	     21.19824053	     -3.36651395	    -15.20465867	     12.63530973	      0.22052776	     -5.28492100	     -0.92040504	    -21.17599892	     10.64682698	      0.18582219	    -12.54583710	     -1.94303308	     -5.78463795	      8.91886406	    -15.47402527	      0.00000000	     19.46129591	      7.40886993	      0.00000000
      4.96666667	     -0.55946990	      0.06784624	     -1.51070638	      1.02872711	      0.90234119	     -0.38832542	     21.42925254	     -3.40238715	    -14.71742533	     10.75809473	      0.18776417	     -5.40390841	     -0.68711133	    -21.41930413	     10.81678755	      0.18878856	    -12.31693048	     -2.28929086	     -6.04421360	      8.82469537	    -14.80949556	      0.00000000	     19.65341530	      7.53838355	      0.00000000
